<svg width="20" height="20" viewBox="0 0 20 20" fill="none" xmlns="http://www.w3.org/2000/svg">
<path d="M18.6495 6.31707C18.6495 6.61469 18.5454 6.86766 18.337 7.076L10.2567 15.1564L8.73883 16.6742C8.53049 16.8825 8.27752 16.9867 7.9799 16.9867C7.68228 16.9867 7.4293 16.8825 7.22097 16.6742L5.70311 15.1564L1.66293 11.1162C1.4546 10.9078 1.35043 10.6549 1.35043 10.3572C1.35043 10.0596 1.4546 9.80665 1.66293 9.59832L3.18079 8.08046C3.38912 7.87213 3.6421 7.76796 3.93972 7.76796C4.23734 7.76796 4.49031 7.87213 4.69865 8.08046L7.9799 11.3729L15.3013 4.04028C15.5097 3.83195 15.7626 3.72778 16.0603 3.72778C16.3579 3.72778 16.6108 3.83195 16.8192 4.04028L18.337 5.55814C18.5454 5.76647 18.6495 6.01945 18.6495 6.31707Z" fill="#9B51E0"/>
</svg>
