<svg width="15" height="15" viewBox="0 0 15 15" fill="none" xmlns="http://www.w3.org/2000/svg">
<path d="M7.5 13.5938C10.8655 13.5938 13.5938 10.8655 13.5938 7.5C13.5938 4.13451 10.8655 1.40625 7.5 1.40625C4.13451 1.40625 1.40625 4.13451 1.40625 7.5C1.40625 10.8655 4.13451 13.5938 7.5 13.5938Z" fill="#D8BAFF"/>
<path d="M3.25626 11.8644C4.35438 12.9325 5.85063 13.5937 7.50001 13.5937C9.14938 13.5937 10.6456 12.9325 11.7438 11.8644C11.4325 10.6656 10.5569 9.67186 9.38376 9.15061C10.0406 8.60561 10.4688 7.79374 10.4688 6.87561C10.4688 5.23874 9.13688 3.90686 7.50001 3.90686C5.86313 3.90686 4.53126 5.23874 4.53126 6.87561C4.53126 7.79374 4.95938 8.60561 5.61626 9.15061C4.44313 9.67186 3.56751 10.6656 3.25626 11.8644Z" fill="#9B51E0"/>
</svg>
